<svg id="visual" viewBox="0 0 540 960" width="540" height="960" xmlns="http://www.w3.org/2000/svg" xmlns:xlink="http://www.w3.org/1999/xlink" version="1.1"><path d="M0 138L12.8 138.3C25.7 138.7 51.3 139.3 77 134.8C102.7 130.3 128.3 120.7 154 117.3C179.7 114 205.3 117 231.2 120.8C257 124.7 283 129.3 308.8 131.8C334.7 134.3 360.3 134.7 386 131C411.7 127.3 437.3 119.7 463 115.7C488.7 111.7 514.3 111.3 527.2 111.2L540 111L540 0L527.2 0C514.3 0 488.7 0 463 0C437.3 0 411.7 0 386 0C360.3 0 334.7 0 308.8 0C283 0 257 0 231.2 0C205.3 0 179.7 0 154 0C128.3 0 102.7 0 77 0C51.3 0 25.7 0 12.8 0L0 0Z" fill="#512b90"></path><path d="M0 93L12.8 93.3C25.7 93.7 51.3 94.3 77 98.2C102.7 102 128.3 109 154 112C179.7 115 205.3 114 231.2 114.2C257 114.3 283 115.7 308.8 116.8C334.7 118 360.3 119 386 118.5C411.7 118 437.3 116 463 112C488.7 108 514.3 102 527.2 99L540 96L540 0L527.2 0C514.3 0 488.7 0 463 0C437.3 0 411.7 0 386 0C360.3 0 334.7 0 308.8 0C283 0 257 0 231.2 0C205.3 0 179.7 0 154 0C128.3 0 102.7 0 77 0C51.3 0 25.7 0 12.8 0L0 0Z" fill="#6534a9"></path><path d="M0 95L12.8 93.3C25.7 91.7 51.3 88.3 77 86.2C102.7 84 128.3 83 154 78.8C179.7 74.7 205.3 67.3 231.2 66.3C257 65.3 283 70.7 308.8 76C334.7 81.3 360.3 86.7 386 87C411.7 87.3 437.3 82.7 463 83C488.7 83.3 514.3 88.7 527.2 91.3L540 94L540 0L527.2 0C514.3 0 488.7 0 463 0C437.3 0 411.7 0 386 0C360.3 0 334.7 0 308.8 0C283 0 257 0 231.2 0C205.3 0 179.7 0 154 0C128.3 0 102.7 0 77 0C51.3 0 25.7 0 12.8 0L0 0Z" fill="#7b3dc2"></path><path d="M0 52L12.8 54.8C25.7 57.7 51.3 63.3 77 64C102.7 64.7 128.3 60.3 154 56.3C179.7 52.3 205.3 48.7 231.2 48.7C257 48.7 283 52.3 308.8 52.7C334.7 53 360.3 50 386 52C411.7 54 437.3 61 463 62.2C488.7 63.3 514.3 58.7 527.2 56.3L540 54L540 0L527.2 0C514.3 0 488.7 0 463 0C437.3 0 411.7 0 386 0C360.3 0 334.7 0 308.8 0C283 0 257 0 231.2 0C205.3 0 179.7 0 154 0C128.3 0 102.7 0 77 0C51.3 0 25.7 0 12.8 0L0 0Z" fill="#9246db"></path><path d="M0 36L12.8 33C25.7 30 51.3 24 77 24.3C102.7 24.7 128.3 31.3 154 32.2C179.7 33 205.3 28 231.2 29C257 30 283 37 308.8 37.5C334.7 38 360.3 32 386 29.8C411.7 27.7 437.3 29.3 463 32.2C488.7 35 514.3 39 527.2 41L540 43L540 0L527.2 0C514.3 0 488.7 0 463 0C437.3 0 411.7 0 386 0C360.3 0 334.7 0 308.8 0C283 0 257 0 231.2 0C205.3 0 179.7 0 154 0C128.3 0 102.7 0 77 0C51.3 0 25.7 0 12.8 0L0 0Z" fill="#aa4ff5"></path></svg>