<svg id="visual" viewBox="0 0 540 960" width="540" height="960" xmlns="http://www.w3.org/2000/svg" xmlns:xlink="http://www.w3.org/1999/xlink" version="1.1"><path d="M0 834L12.8 831C25.7 828 51.3 822 77 817.8C102.7 813.7 128.3 811.3 154 816.7C179.7 822 205.3 835 231.2 834.5C257 834 283 820 308.8 820C334.7 820 360.3 834 386 840.2C411.7 846.3 437.3 844.7 463 841.2C488.7 837.7 514.3 832.3 527.2 829.7L540 827L540 961L527.2 961C514.3 961 488.7 961 463 961C437.3 961 411.7 961 386 961C360.3 961 334.7 961 308.8 961C283 961 257 961 231.2 961C205.3 961 179.7 961 154 961C128.3 961 102.7 961 77 961C51.3 961 25.7 961 12.8 961L0 961Z" fill="#512b90"></path><path d="M0 856L12.8 853.3C25.7 850.7 51.3 845.3 77 842C102.7 838.7 128.3 837.3 154 838.5C179.7 839.7 205.3 843.3 231.2 848.3C257 853.3 283 859.7 308.8 861.5C334.7 863.3 360.3 860.7 386 855.5C411.7 850.3 437.3 842.7 463 843.5C488.7 844.3 514.3 853.7 527.2 858.3L540 863L540 961L527.2 961C514.3 961 488.7 961 463 961C437.3 961 411.7 961 386 961C360.3 961 334.7 961 308.8 961C283 961 257 961 231.2 961C205.3 961 179.7 961 154 961C128.3 961 102.7 961 77 961C51.3 961 25.7 961 12.8 961L0 961Z" fill="#6534a9"></path><path d="M0 883L12.8 884C25.7 885 51.3 887 77 886.7C102.7 886.3 128.3 883.7 154 883C179.7 882.3 205.3 883.7 231.2 880.2C257 876.7 283 868.3 308.8 865.7C334.7 863 360.3 866 386 870.7C411.7 875.3 437.3 881.7 463 882.5C488.7 883.3 514.3 878.7 527.2 876.3L540 874L540 961L527.2 961C514.3 961 488.7 961 463 961C437.3 961 411.7 961 386 961C360.3 961 334.7 961 308.8 961C283 961 257 961 231.2 961C205.3 961 179.7 961 154 961C128.3 961 102.7 961 77 961C51.3 961 25.7 961 12.8 961L0 961Z" fill="#7b3dc2"></path><path d="M0 890L12.8 890.2C25.7 890.3 51.3 890.7 77 893.7C102.7 896.7 128.3 902.3 154 903.5C179.7 904.7 205.3 901.3 231.2 901.5C257 901.7 283 905.3 308.8 905C334.7 904.7 360.3 900.3 386 899.2C411.7 898 437.3 900 463 900.2C488.7 900.3 514.3 898.7 527.2 897.8L540 897L540 961L527.2 961C514.3 961 488.7 961 463 961C437.3 961 411.7 961 386 961C360.3 961 334.7 961 308.8 961C283 961 257 961 231.2 961C205.3 961 179.7 961 154 961C128.3 961 102.7 961 77 961C51.3 961 25.7 961 12.8 961L0 961Z" fill="#9246db"></path><path d="M0 916L12.8 918.7C25.7 921.3 51.3 926.7 77 930.7C102.7 934.7 128.3 937.3 154 937.3C179.7 937.3 205.3 934.7 231.2 930.8C257 927 283 922 308.8 921C334.7 920 360.3 923 386 926.2C411.7 929.3 437.3 932.7 463 931.7C488.7 930.7 514.3 925.3 527.2 922.7L540 920L540 961L527.2 961C514.3 961 488.7 961 463 961C437.3 961 411.7 961 386 961C360.3 961 334.7 961 308.8 961C283 961 257 961 231.2 961C205.3 961 179.7 961 154 961C128.3 961 102.7 961 77 961C51.3 961 25.7 961 12.8 961L0 961Z" fill="#aa4ff5"></path></svg>