<svg id="visual" viewBox="0 0 960 540" width="960" height="540" xmlns="http://www.w3.org/2000/svg" xmlns:xlink="http://www.w3.org/1999/xlink" version="1.1"><path d="M0 402L22.8 405C45.7 408 91.3 414 137 422.2C182.7 430.3 228.3 440.7 274 442.7C319.7 444.7 365.3 438.3 411.2 433.8C457 429.3 503 426.7 548.8 428.3C594.7 430 640.3 436 686 433.3C731.7 430.7 777.3 419.3 823 415.3C868.7 411.3 914.3 414.7 937.2 416.3L960 418L960 541L937.2 541C914.3 541 868.7 541 823 541C777.3 541 731.7 541 686 541C640.3 541 594.7 541 548.8 541C503 541 457 541 411.2 541C365.3 541 319.7 541 274 541C228.3 541 182.7 541 137 541C91.3 541 45.7 541 22.8 541L0 541Z" fill="#512b90"></path><path d="M0 436L22.8 439.8C45.7 443.7 91.3 451.3 137 454.8C182.7 458.3 228.3 457.7 274 457.3C319.7 457 365.3 457 411.2 451.3C457 445.7 503 434.3 548.8 432.2C594.7 430 640.3 437 686 441C731.7 445 777.3 446 823 444.5C868.7 443 914.3 439 937.2 437L960 435L960 541L937.2 541C914.3 541 868.7 541 823 541C777.3 541 731.7 541 686 541C640.3 541 594.7 541 548.8 541C503 541 457 541 411.2 541C365.3 541 319.7 541 274 541C228.3 541 182.7 541 137 541C91.3 541 45.7 541 22.8 541L0 541Z" fill="#6534a9"></path><path d="M0 481L22.8 476.2C45.7 471.3 91.3 461.7 137 462.5C182.7 463.3 228.3 474.7 274 474.8C319.7 475 365.3 464 411.2 459.5C457 455 503 457 548.8 460.8C594.7 464.7 640.3 470.3 686 469.2C731.7 468 777.3 460 823 455.2C868.7 450.3 914.3 448.7 937.2 447.8L960 447L960 541L937.2 541C914.3 541 868.7 541 823 541C777.3 541 731.7 541 686 541C640.3 541 594.7 541 548.8 541C503 541 457 541 411.2 541C365.3 541 319.7 541 274 541C228.3 541 182.7 541 137 541C91.3 541 45.7 541 22.8 541L0 541Z" fill="#7b3dc2"></path><path d="M0 477L22.8 480.7C45.7 484.3 91.3 491.7 137 494C182.7 496.3 228.3 493.7 274 494.7C319.7 495.7 365.3 500.3 411.2 503C457 505.7 503 506.3 548.8 503.7C594.7 501 640.3 495 686 491.2C731.7 487.3 777.3 485.7 823 486.2C868.7 486.7 914.3 489.3 937.2 490.7L960 492L960 541L937.2 541C914.3 541 868.7 541 823 541C777.3 541 731.7 541 686 541C640.3 541 594.7 541 548.8 541C503 541 457 541 411.2 541C365.3 541 319.7 541 274 541C228.3 541 182.7 541 137 541C91.3 541 45.7 541 22.8 541L0 541Z" fill="#9246db"></path><path d="M0 510L22.8 508.7C45.7 507.3 91.3 504.7 137 503.3C182.7 502 228.3 502 274 504.3C319.7 506.7 365.3 511.3 411.2 510.5C457 509.7 503 503.3 548.8 505C594.7 506.7 640.3 516.3 686 519C731.7 521.7 777.3 517.3 823 514.8C868.7 512.3 914.3 511.7 937.2 511.3L960 511L960 541L937.2 541C914.3 541 868.7 541 823 541C777.3 541 731.7 541 686 541C640.3 541 594.7 541 548.8 541C503 541 457 541 411.2 541C365.3 541 319.7 541 274 541C228.3 541 182.7 541 137 541C91.3 541 45.7 541 22.8 541L0 541Z" fill="#aa4ff5"></path></svg>