<svg id="visual" viewBox="0 0 960 540" width="960" height="540" xmlns="http://www.w3.org/2000/svg" xmlns:xlink="http://www.w3.org/1999/xlink" version="1.1"><path d="M0 110L22.8 103.7C45.7 97.3 91.3 84.7 137 81.3C182.7 78 228.3 84 274 92.8C319.7 101.7 365.3 113.3 411.2 112.8C457 112.3 503 99.7 548.8 96.8C594.7 94 640.3 101 686 100.5C731.7 100 777.3 92 823 92.5C868.7 93 914.3 102 937.2 106.5L960 111L960 0L937.2 0C914.3 0 868.7 0 823 0C777.3 0 731.7 0 686 0C640.3 0 594.7 0 548.8 0C503 0 457 0 411.2 0C365.3 0 319.7 0 274 0C228.3 0 182.7 0 137 0C91.3 0 45.7 0 22.8 0L0 0Z" fill="#512b90"></path><path d="M0 61L22.8 64.2C45.7 67.3 91.3 73.7 137 75.5C182.7 77.3 228.3 74.7 274 70.3C319.7 66 365.3 60 411.2 62.2C457 64.3 503 74.7 548.8 79C594.7 83.3 640.3 81.7 686 79.2C731.7 76.7 777.3 73.3 823 75.5C868.7 77.7 914.3 85.3 937.2 89.2L960 93L960 0L937.2 0C914.3 0 868.7 0 823 0C777.3 0 731.7 0 686 0C640.3 0 594.7 0 548.8 0C503 0 457 0 411.2 0C365.3 0 319.7 0 274 0C228.3 0 182.7 0 137 0C91.3 0 45.7 0 22.8 0L0 0Z" fill="#6534a9"></path><path d="M0 56L22.8 53.2C45.7 50.3 91.3 44.7 137 49C182.7 53.3 228.3 67.7 274 68.3C319.7 69 365.3 56 411.2 54.5C457 53 503 63 548.8 62.5C594.7 62 640.3 51 686 53.2C731.7 55.3 777.3 70.7 823 78C868.7 85.3 914.3 84.7 937.2 84.3L960 84L960 0L937.2 0C914.3 0 868.7 0 823 0C777.3 0 731.7 0 686 0C640.3 0 594.7 0 548.8 0C503 0 457 0 411.2 0C365.3 0 319.7 0 274 0C228.3 0 182.7 0 137 0C91.3 0 45.7 0 22.8 0L0 0Z" fill="#7b3dc2"></path><path d="M0 26L22.8 31.8C45.7 37.7 91.3 49.3 137 49.5C182.7 49.7 228.3 38.3 274 38.3C319.7 38.3 365.3 49.7 411.2 51.8C457 54 503 47 548.8 43.5C594.7 40 640.3 40 686 42C731.7 44 777.3 48 823 49.2C868.7 50.3 914.3 48.7 937.2 47.8L960 47L960 0L937.2 0C914.3 0 868.7 0 823 0C777.3 0 731.7 0 686 0C640.3 0 594.7 0 548.8 0C503 0 457 0 411.2 0C365.3 0 319.7 0 274 0C228.3 0 182.7 0 137 0C91.3 0 45.7 0 22.8 0L0 0Z" fill="#9246db"></path><path d="M0 25L22.8 26.8C45.7 28.7 91.3 32.3 137 34.3C182.7 36.3 228.3 36.7 274 35.5C319.7 34.3 365.3 31.7 411.2 30.5C457 29.3 503 29.7 548.8 27.3C594.7 25 640.3 20 686 17.8C731.7 15.7 777.3 16.3 823 16.2C868.7 16 914.3 15 937.2 14.5L960 14L960 0L937.2 0C914.3 0 868.7 0 823 0C777.3 0 731.7 0 686 0C640.3 0 594.7 0 548.8 0C503 0 457 0 411.2 0C365.3 0 319.7 0 274 0C228.3 0 182.7 0 137 0C91.3 0 45.7 0 22.8 0L0 0Z" fill="#aa4ff5"></path></svg>